<?xml version="1.0" encoding="UTF-8"?>
<svg width="64" height="64" version="1.1" viewBox="0 0 16.933 16.933" xmlns="http://www.w3.org/2000/svg">
 <defs>
  <style>.cls-1 {
        fill: #fff;
      }

      .cls-2 {
        fill: #654ff0;
      }</style>
 </defs>
 <g transform="translate(-.93573)">
  <rect x="2.5147" y="3.0963" width="13.775" height="13.804" rx="1.8907" ry="1.8907" fill="#f7dc1e" stop-color="#000000" stroke-width=".26458" style="-inkscape-stroke:none;paint-order:stroke markers fill"/>
  <g transform="matrix(.081042 0 0 .081042 2.041 2.6792)" stroke-width="3.2648">
   <rect class="cls-1" x="107" y="125" width="50" height="32"/>
   <path class="cls-2" d="m135.18 97c0-0.13-0.01-7.24-0.02-7.37h27.51v71.33h-71.34v-71.33h27.51c0 0.13-0.02 7.24-0.02 7.37m32.59 56.33h4.9l-7.43-25.25h-7.45l-6.12 25.25h4.75l1.24-5.62h8.49l1.61 5.62zm-26.03 0h4.69l6.02-25.25h-4.63l-3.69 17.4h-0.06l-3.5-17.4h-4.42l-3.9 17.19h-0.06l-3.23-17.19h-4.72l5.44 25.25h4.78l3.75-17.19h0.06zm18.89-19.03h1.99l2.37 9.27h-6.42z"/>
   <path d="m89 49.66c0 10.6-8.8 20-20 20h-40v20h-10v-70h50c10.7 0 19.7 8.9 20 20zm-10-10c0-5.5-4.5-10-10-10h-40v30h40c5.5 0 10-4.5 10-10z"/>
   <path d="m132 67.66v22h-10v-22l-30-33v-15h10v10.9l25 27.5 25-27.5v-10.9h10v15z"/>
  </g>
  <path d="m7.2454 3.6853s-0.51084-3.1156 2.1602-3.1156c2.671 0 2.1522 3.1018 2.1522 3.1018" fill="none" stroke="#f7dc1e" stroke-linecap="round" stroke-width="1.0583"/>
 </g>
</svg>
